IKResults
version=1
nRows=9
nColumns=63
inDegrees=yes

Units are S.I. units (second, meters, Newtons, ...)
If the header above contains a line with 'inDegrees', this indicates whether rotational values are in degrees (yes) or radians (no).

endheader
time	pelvis_tilt	pelvis_list	pelvis_rotation	pelvis_tx	pelvis_ty	pelvis_tz	hip_flexion_r	hip_adduction_r	hip_rotation_r	knee_angle_r	knee_angle_r_beta	ankle_angle_r	subtalar_angle_r	mtp_angle_r	hip_flexion_l	hip_adduction_l	hip_rotation_l	knee_angle_l	knee_angle_l_beta	ankle_angle_l	subtalar_angle_l	mtp_angle_l	L5_S1_Flex_Ext	L5_S1_Lat_Bending	L5_S1_axial_rotation	L4_L5_Flex_Ext	L4_L5_Lat_Bending	L4_L5_axial_rotation	L3_L4_Flex_Ext	L3_L4_Lat_Bending	L3_L4_axial_rotation	L2_L3_Flex_Ext	L2_L3_Lat_Bending	L2_L3_axial_rotation	L1_L2_Flex_Ext	L1_L2_Lat_Bending	L1_L2_axial_rotation	L1_T12_Flex_Ext	L1_T12_Lat_Bending	L1_T12_axial_rotation	Abs_r3	Abs_r2	Abs_r1	Abs_t1	Abs_t2	neck_flexion	neck_bending	neck_rotation	arm_flex_r	arm_add_r	arm_rot_r	elbow_flex_r	pro_sup_r	wrist_flex_r	wrist_dev_r	arm_flex_l	arm_add_l	arm_rot_l	elbow_flex_l	pro_sup_l	wrist_flex_l	wrist_dev_l
      2.03333333	    111.00239806	      1.52247547	    -70.82833196	     -0.87611782	      0.16671764	      0.17167438	     31.42362696	    -18.15613452	     25.78215920	     46.68051027	      0.81472860	    -14.14380419	    -19.65658853	      0.00000000	     52.63222395	     16.65036472	    -38.07946277	     26.01930306	      0.45412251	    -36.33245895	     -6.36149133	      0.00000000	     -4.24271730	     -4.33446844	      0.64235359	     -7.87915029	     -5.76484302	      0.68250068	     -6.97036025	    -10.53882656	      0.68250068	     -4.84900160	    -10.53882656	      0.56205939	     -3.93978728	     -8.83884804	      0.52191229	     -2.42428866	     -6.71409161	      0.48176519	    -30.30530537	    -49.03237388	      3.57257793	      0.00000000	      0.00000000	      4.24976550	      9.55274506	    -42.12462146	      0.00000000	    -90.00000009	      0.00000000	     74.97985993	     89.99559364	      0.00000000	      0.00000000	     30.16659274	    -38.61362244	     24.16127181	     41.67960620	     89.99559364	      0.00000000	      0.00000000
      2.06666667	    109.73249963	      5.60769661	    -74.93288649	     -0.87075964	      0.16864437	      0.17957798	     36.42962629	    -16.54560528	     28.74561567	     45.09342158	      0.78702868	    -16.55601941	    -19.64026559	      0.00000000	     57.65605195	     15.20134891	    -37.99970175	     25.86626209	      0.45145144	    -36.36749687	     -7.76529384	      0.00000000	     -3.04467695	     -4.38990176	      0.92449047	     -5.65426957	     -5.83856934	      0.98227112	     -5.00209977	    -10.67360713	      0.98227112	     -3.47976129	    -10.67360713	      0.80892916	     -2.82728702	     -8.95188766	      0.75114851	     -1.73972841	     -6.79995782	      0.69336785	    -21.74782300	    -49.65944665	      5.14173864	      0.00000000	      0.00000000	      2.89026460	      9.11982767	    -40.41946954	      0.00000000	    -90.00000009	      0.00000000	     74.98042960	     89.99559364	      0.00000000	      0.00000000	     30.88590724	    -35.45381850	     22.68921606	     44.08037378	     89.99559364	      0.00000000	      0.00000000
      2.10000000	    108.67543001	      7.18747251	    -78.62493110	     -0.86916032	      0.17061893	      0.18513304	     38.26783929	    -14.66286233	     30.61930556	     43.01297536	      0.75071804	    -19.21098750	    -19.60844319	      0.00000000	     59.78519132	     13.64025351	    -37.29110832	     25.63637124	      0.44743909	    -35.07910143	     -6.62894518	      0.00000000	     -2.31024907	     -4.26364892	      1.30642266	     -4.29036356	     -5.67065306	      1.38807407	     -3.79550820	    -10.36663598	      1.38807407	     -2.64038367	    -10.36663598	      1.14311982	     -2.14529729	     -8.69443288	      1.06146841	     -1.32007632	     -6.60439218	      0.97981699	    -16.50187811	    -48.23124931	      7.26593089	      0.00000000	      0.00000000	      2.57852884	      7.72068083	    -37.84593001	      0.00000000	    -90.00000009	      0.00000000	     74.98063524	     89.99559364	      0.00000000	      0.00000000	     33.07000412	    -30.11029251	     21.56538147	     44.17395671	     89.99559364	      0.00000000	      0.00000000
      2.13333333	    107.85245788	      9.91203360	    -82.61384988	     -0.86573606	      0.17319573	      0.19167731	     41.34187585	    -12.74489242	     32.81635943	     41.17077343	      0.71856555	    -22.08171857	    -19.55754605	      0.00000000	     62.84395510	     12.00802841	    -36.66454538	     25.14103848	      0.43879390	    -32.51849310	     -2.78079630	      0.00000000	     -1.36557991	     -4.14475699	      1.77249169	     -2.53601846	     -5.51252680	      1.88327242	     -2.24351124	    -10.07756216	      1.88327242	     -1.56072128	    -10.07756216	      1.55093023	     -1.26807751	     -8.45198846	      1.44014949	     -0.78029236	     -6.42022858	      1.32936876	     -9.75420077	    -46.88632007	      9.85806701	      0.00000000	      0.00000000	      1.55872215	      6.49943270	    -34.80714534	      0.00000000	    -90.00000009	      0.00000000	     74.98103240	     89.99559364	      0.00000000	      0.00000000	     34.47176197	    -24.23379785	     19.62390700	     44.41288934	     89.99559364	      0.00000000	      0.00000000
      2.16666667	    107.57338050	      9.66807936	    -86.77421400	     -0.86556526	      0.17357374	      0.19571273	     41.43213032	    -10.72289846	     34.90773726	     39.59062593	      0.69098678	    -24.66039312	    -19.47522809	      0.00000000	     62.82251597	     10.21716544	    -35.85182642	     24.65978454	      0.43039443	    -28.45341092	      3.49724581	      0.00000000	     -1.01337266	     -3.99853006	      2.27367166	     -1.88193437	     -5.31804499	      2.41577614	     -1.66486995	     -9.72202600	      2.41577614	     -1.15818362	     -9.72202600	      1.98946270	     -0.94101785	     -8.15380251	      1.84735822	     -0.57904114	     -6.19372307	      1.70525375	     -7.23841959	    -45.23217179	     12.64547967	      0.00000000	      0.00000000	      2.55649405	      5.16487033	    -32.93004782	      0.00000000	    -90.00000009	      0.00000000	     74.98131660	     89.99559364	      0.00000000	      0.00000000	     37.70475207	    -17.68835310	     17.94027527	     43.38785307	     89.99559364	      0.00000000	      0.00000000
      2.20000000	    107.63336437	      8.84476235	    -91.39283910	     -0.86494893	      0.17230841	      0.19927374	     41.28073569	     -8.62522955	     37.21197858	     38.56516473	      0.67308910	    -26.79528138	    -19.34694685	      0.00000000	     62.19773306	      8.08683288	    -35.87710139	     24.05881893	      0.41990560	    -23.57610644	     11.77480074	      0.00000000	     -0.76895624	     -3.90487343	      2.74698687	     -1.42802864	     -5.19348166	      2.91867355	     -1.26331821	     -9.49430926	      2.91867355	     -0.87884009	     -9.49430926	      2.40361351	     -0.71405277	     -7.96281790	      2.23192683	     -0.43938160	     -6.04864894	      2.06024015	     -5.49257755	    -44.17270921	     15.27791686	      0.00000000	      0.00000000	      4.30333201	      4.09321992	    -31.96207748	      0.00000000	    -90.00000009	      0.00000000	     74.98157747	     89.99559364	      0.00000000	      0.00000000	     40.89110552	    -12.09203050	     16.16239692	     43.13082269	     89.99559364	      0.00000000	      0.00000000
      2.23333333	    107.45670206	      7.99879210	    -95.74852470	     -0.86300387	      0.17100501	      0.20255238	     41.29099712	     -6.55081854	     38.51098261	     38.06085620	      0.66428726	    -28.23245904	    -19.15165379	      0.00000000	     61.95868076	      6.19479180	    -34.97007586	     23.51851308	      0.41047549	    -18.44349028	     18.33398533	      0.00000000	     -0.53509277	     -3.79970104	      3.02946214	     -0.99372079	     -5.05360239	      3.21880352	     -0.87910392	     -9.23859312	      3.21880352	     -0.61155753	     -9.23859312	      2.65077937	     -0.49688715	     -7.74835037	      2.46143799	     -0.30575201	     -5.88573692	      2.27209661	     -3.82211418	    -42.98297816	     16.84895959	      0.00000000	      0.00000000	      6.34702446	      2.98534561	    -31.74067083	      0.00000000	    -90.00000009	      0.00000000	     74.98171332	     89.99559364	      0.00000000	      0.00000000	     43.47962854	     -8.11849351	     15.14554075	     44.10398040	     89.99559364	      0.00000000	      0.00000000
      2.26666667	    107.22371068	      7.02216598	    -99.86995447	     -0.85999821	      0.17082272	      0.20495664	     41.45704491	     -4.64460619	     39.16362109	     38.17847934	      0.66634017	    -28.91552124	    -18.69563118	      0.00000000	     62.24117765	      5.20628741	    -31.72805310	     22.59604320	      0.39437535	    -13.03229718	     19.44006408	      0.00000000	     -0.35341651	     -3.69339258	      3.12606558	     -0.65632980	     -4.91221214	      3.32144468	     -0.58062798	     -8.98011473	      3.32144468	     -0.40391973	     -8.98011473	      2.73530739	     -0.32818257	     -7.53156616	      2.53992829	     -0.20194219	     -5.72106511	      2.34454919	     -2.52441879	    -41.78039559	     17.38623896	      0.00000000	      0.00000000	      8.78619793	      1.24890549	    -33.19450661	      0.00000000	    -90.00000009	      0.00000000	     74.98206814	     89.99559364	      0.00000000	      0.00000000	     45.26028655	     -4.55495233	     11.20031471	     45.61028497	     89.99559364	      0.00000000	      0.00000000
      2.30000000	    106.53085734	      5.97339572	   -103.54298570	     -0.85661306	      0.17136870	      0.20683019	     41.43403946	     -2.62001431	     39.31337884	     38.57396096	      0.67324262	    -29.10481209	    -17.93888283	      0.00000000	     62.63927161	      4.33587958	    -28.76754246	     21.18954411	      0.36982731	     -8.73197196	     19.65464405	      0.00000000	     -0.23099877	     -3.54250037	      3.04949643	     -0.42898782	     -4.71152549	      3.24008995	     -0.37950788	     -8.61323539	      3.24008995	     -0.26400850	     -8.61323539	      2.66830937	     -0.21450546	     -7.22386675	      2.47771585	     -0.13199270	     -5.48733307	      2.28712232	     -1.65000114	    -40.07347266	     16.96038427	      0.00000000	      0.00000000	     11.18877192	     -1.47473423	    -36.57992344	      0.00000000	    -90.00000009	      0.00000000	     74.98238758	     89.99559364	      0.00000000	      0.00000000	     46.76956621	     -1.79708866	      6.96669716	     46.68580991	     89.99559364	      0.00000000	      0.00000000
